<svg width="40" height="40" viewBox="0 0 40 40" fill="none" xmlns="http://www.w3.org/2000/svg">
    <path d="M34.4734 11.0542L20.6068 3.05183C20.256 2.84796 19.8198 2.84796 19.469 3.05183L5.60231 11.0542C5.25153 11.2581 5.03345 11.6326 5.03345 12.0403V28.0498C5.03345 28.4574 5.25153 28.832 5.60231 29.0358L19.469 37.043C19.6444 37.1425 19.8435 37.1947 20.0379 37.1947C20.2322 37.1947 20.4313 37.1426 20.6067 37.043L34.4734 29.0358C34.8242 28.832 35.0423 28.4575 35.0423 28.0498V12.0403C35.0423 11.6326 34.8242 11.2581 34.4734 11.0542H34.4734ZM32.7668 27.3955L20.0379 34.7437L7.30903 27.3955V12.6992L20.0379 5.35112L32.7668 12.6992V27.3955Z" fill="white"/>
    <path d="M10.5517 14.9795C10.2388 15.5247 10.4237 16.2216 10.969 16.5345L18.886 21.1046V30.1451C18.886 30.7757 19.3933 31.2829 20.0238 31.2829C20.6543 31.2829 21.1615 30.7756 21.1615 30.1451V21.1188L29.107 16.5297C29.6522 16.2169 29.8371 15.5199 29.5242 14.9748C29.2114 14.4296 28.5144 14.2447 27.9693 14.5576L20.038 19.1371L12.1068 14.5576C11.5616 14.2447 10.8694 14.4343 10.5518 14.9795L10.5517 14.9795Z" fill="white"/>
</svg>
