<svg width="63" height="41" viewBox="0 0 63 41" fill="none" xmlns="http://www.w3.org/2000/svg">
<path d="M18.9003 23.9186H44.0996V17.0867H18.9003V23.9186ZM5.98458 20.5C5.98458 12.6423 11.6511 6.49135 18.9003 6.49135H28.3506V0H18.9003C8.50414 0 0 9.22396 0 20.5C0 31.7759 8.50414 41 18.9003 41H28.3506V34.5087H18.9003C11.6511 34.5088 5.98458 28.353 5.98458 20.5ZM44.0996 0H34.6493V6.49135H44.0996C51.3438 6.49135 57.0106 12.6423 57.0106 20.5C57.0106 28.3529 51.3439 34.5087 44.0996 34.5087H34.6493V41H44.0996C54.4957 41 63 31.7759 63 20.5C62.9999 9.22396 54.4957 0 44.0996 0Z" fill="white" fill-opacity="0.66"/>
</svg>
