<svg width="27" height="27" viewBox="0 0 27 27" fill="none" xmlns="http://www.w3.org/2000/svg">
    <path d="M25.0587 14.0484L22.8333 11.8231C22.6724 11.6624 22.4617 11.582 22.251 11.5821C22.0401 11.582 21.8294 11.6624 21.6688 11.8233L19.4402 14.0521C19.1185 14.3737 19.1185 14.8951 19.4402 15.2168C19.6011 15.3775 19.8118 15.4579 20.0225 15.4579C20.2332 15.4579 20.4442 15.3775 20.6047 15.2166L21.4794 14.3419C21.057 18.9649 17.1601 22.5986 12.4288 22.5986C7.41652 22.5986 3.33875 18.5209 3.33875 13.5086C3.33875 8.49625 7.41652 4.41834 12.4288 4.41834C14.8568 4.41834 17.1395 5.36386 18.8566 7.08079C19.1783 7.40249 19.6995 7.40249 20.0212 7.08079C20.3429 6.75922 20.3429 6.2378 20.0212 5.91623C17.9931 3.88807 15.2968 2.77124 12.4288 2.77124C6.50826 2.77124 1.69165 7.58799 1.69165 13.5086C1.69165 19.429 6.50826 24.2457 12.4288 24.2457C18.0346 24.2457 22.6481 19.9268 23.1231 14.4422L23.8941 15.2132C24.055 15.3739 24.2657 15.4543 24.4764 15.4543C24.6871 15.4543 24.8978 15.3739 25.0586 15.213C25.3804 14.8914 25.3804 14.37 25.0587 14.0484Z" fill="black"/>
    <path d="M10.8433 11.3141L11.4256 10.7319C11.7473 10.4103 11.7473 9.88889 11.4256 9.56733C11.1039 9.24562 10.5827 9.24562 10.261 9.56733L9.67878 10.1496C9.35707 10.4712 9.35707 10.9926 9.67878 11.3141C9.83962 11.475 10.0503 11.5554 10.261 11.5554C10.4717 11.5554 10.6825 11.475 10.8433 11.3141Z" fill="black"/>
    <path d="M14.9197 14.226L14.3375 14.8083C14.0158 15.1298 14.0158 15.6513 14.3375 15.9728C14.4983 16.1337 14.709 16.2141 14.9197 16.2141C15.1304 16.2141 15.3412 16.1337 15.502 15.9728L16.0843 15.3906C16.406 15.069 16.406 14.5476 16.0843 14.226C15.7626 13.9043 15.2414 13.9043 14.9197 14.226Z" fill="black"/>
    <path d="M8.87133 13.7398C8.74293 14.2851 8.74452 15.4273 9.56673 16.2493C10.1643 16.8468 10.9364 17.0148 11.5227 17.0148C11.7387 17.0148 11.9296 16.9919 12.0771 16.9593C12.5172 16.862 12.792 16.4301 12.7003 15.9887C12.6087 15.5476 12.1738 15.2616 11.7312 15.3491C11.7245 15.3501 11.1112 15.4645 10.7313 15.0846C10.3619 14.715 10.4688 14.1476 10.4766 14.109C10.5753 13.6693 10.3016 13.2309 9.86191 13.1273C9.42009 13.0226 8.97562 13.2969 8.87133 13.7398Z" fill="black"/>
</svg>
