<svg t="1667892482934" class="icon" viewBox="0 0 1024 1024" version="1.1" xmlns="http://www.w3.org/2000/svg" p-id="7999"
     width="200" height="200">
    <path d="M512 0C228.693333 0 0 228.693333 0 512s228.693333 512 512 512 512-228.693333 512-512S795.306667 0 512 0z m-133.12 167.253333c-6.826667-6.826667-6.826667-17.066667 0-23.893333s17.066667-6.826667 23.893333 0l6.826667 3.413333 3.413333-3.413333c6.826667-6.826667 17.066667-6.826667 23.893334 0s6.826667 17.066667 0 23.893333l-3.413334 3.413334 10.24 10.24 3.413334-3.413334c6.826667-6.826667 17.066667-6.826667 23.893333 0s6.826667 17.066667 0 23.893334l-3.413333 3.413333 10.24 10.24 3.413333-3.413333c6.826667-6.826667 17.066667-6.826667 23.893333 0s6.826667 17.066667 0 23.893333l-3.413333 3.413333 10.24 10.24 3.413333-3.413333c6.826667-6.826667 17.066667-6.826667 23.893334 0s6.826667 17.066667 0 23.893333l-3.413334 3.413334 10.24 10.24 3.413334-3.413334c6.826667-6.826667 17.066667-6.826667 23.893333 0s6.826667 17.066667 0 23.893334l-3.413333 3.413333 3.413333 3.413333c6.826667 6.826667 6.826667 17.066667 0 23.893334 0 6.826667-6.826667 6.826667-10.24 6.826666s-10.24 0-13.653333-3.413333l-3.413334-6.826667-3.413333 3.413334c-3.413333 6.826667-10.24 6.826667-13.653333 6.826666s-10.24 0-13.653334-3.413333c-6.826667-6.826667-6.826667-17.066667 0-23.893333l6.826667-6.826667-10.24-10.24-3.413333 3.413333c-3.413333 6.826667-10.24 6.826667-13.653334 6.826667s-10.24 0-13.653333-3.413333c-6.826667-6.826667-6.826667-17.066667 0-23.893334l6.826667-6.826666-10.24-10.24-3.413334 3.413333c-3.413333 6.826667-10.24 6.826667-13.653333 6.826667s-10.24 0-13.653333-3.413334c-6.826667-6.826667-6.826667-17.066667 0-23.893333l6.826666-6.826667-10.24-10.24-3.413333 3.413334c-3.413333 6.826667-10.24 6.826667-13.653333 6.826666s-10.24 0-13.653334-3.413333c-6.826667-6.826667-6.826667-17.066667 0-23.893333l6.826667-6.826667-10.24-10.24-3.413333 3.413333c-3.413333 6.826667-10.24 6.826667-13.653334 6.826667s-10.24 0-13.653333-3.413333c-6.826667-6.826667-6.826667-17.066667 0-23.893334l6.826667-6.826666-6.826667-3.413334zM204.8 368.64C204.8 307.2 256 307.2 286.72 307.2h40.96c27.306667 0 81.92 0 81.92 61.44 0 58.026667-44.373333 109.226667-102.4 109.226667s-102.4-47.786667-102.4-109.226667zM733.866667 716.8H716.8c0 23.893333-3.413333 68.266667-20.48 88.746667-6.826667 10.24-20.48 13.653333-30.72 13.653333s-23.893333-3.413333-30.72-13.653333c0 0 0-3.413333-3.413333-3.413334 0 0 0 3.413333-3.413334 3.413334-6.826667 10.24-17.066667 13.653333-30.72 13.653333-10.24 0-23.893333-3.413333-30.72-13.653333 0 0-3.413333-3.413333-3.413333-6.826667 0 3.413333-3.413333 3.413333-3.413333 6.826667-6.826667 10.24-17.066667 13.653333-30.72 13.653333-10.24 0-23.893333-3.413333-30.72-13.653333 0 0-3.413333-3.413333-3.413334-6.826667 0 3.413333-3.413333 3.413333-3.413333 6.826667-6.826667 10.24-17.066667 13.653333-30.72 13.653333-10.24 0-23.893333-3.413333-30.72-13.653333 0 0-3.413333-3.413333-3.413333-6.826667 0 3.413333-3.413333 3.413333-3.413334 6.826667-6.826667 10.24-20.48 13.653333-30.72 13.653333s-23.893333-3.413333-30.72-13.653333c0 0-3.413333-3.413333-3.413333-6.826667 0 3.413333-3.413333 3.413333-3.413333 6.826667-6.826667 10.24-20.48 13.653333-30.72 13.653333s-23.893333-3.413333-30.72-13.653333C273.066667 785.066667 273.066667 740.693333 273.066667 716.8h-17.066667c-10.24 0-17.066667-6.826667-17.066667-17.066667s6.826667-17.066667 17.066667-17.066666h477.866667c10.24 0 17.066667 6.826667 17.066666 17.066666s-6.826667 17.066667-17.066666 17.066667z m0-238.933333c-47.786667 0-85.333333-40.96-85.333334-92.16 0-30.72 13.653333-44.373333 40.96-44.373334h88.746667c27.306667 0 40.96 17.066667 40.96 44.373334 0 51.2-37.546667 92.16-85.333333 92.16z"
          fill="currentColor" p-id="8000" />
</svg>
