<svg t="1667894971881" class="icon" viewBox="0 0 1024 1024" version="1.1" xmlns="http://www.w3.org/2000/svg" p-id="2106"
     width="200" height="200">
    <path fill="currentColor" d="M465.02 467l-0.086-309.988C464.928 132.16 485.07 112.006 509.922 112c24.852-0.006 45.006 20.134 45.012 44.988l0.086 310.012h310.21c24.852 0 45 20.148 45 45s-20.148 45-45 45H555.046l0.084 309.988c0.008 24.852-20.134 45.006-44.986 45.012-24.854 0.006-45.006-20.134-45.014-44.988l-0.084-310.012H157C132.148 557 112 536.852 112 512s20.148-45 45-45h308.02z"
          p-id="2107"/>
</svg>
