<svg width="67" height="73" viewBox="0 0 67 73" fill="none" xmlns="http://www.w3.org/2000/svg">
    <path d="M60.3415 52.0405C62.9983 50.3016 66.5247 52.2028 66.5321 55.378L66.5407 59.0977C66.544 60.5142 65.798 61.8267 64.5793 62.5486L52.6586 69.6099C52.2235 69.8676 51.7434 70.0405 51.2439 70.1194L33.671 72.894C33.2269 72.9642 32.774 72.9589 32.3316 72.8785L17.0843 70.1062C16.6969 70.0358 16.322 69.9086 15.9718 69.7286L2.19753 62.6515C0.86694 61.9679 0.0290287 60.5989 0.0255458 59.1029L0.0160765 55.0357C0.00893206 51.9671 3.31722 50.0336 5.98735 51.5459L16.0179 57.2269C16.3378 57.4081 16.6811 57.5443 17.0382 57.6317L32.1118 61.3211C32.6964 61.4642 33.3057 61.4735 33.8944 61.3484L51.2676 57.6557C51.7517 57.5528 52.2124 57.361 52.6265 57.09L60.3415 52.0405Z" fill="black" fill-opacity="0.6"/>
    <rect x="53" width="14" height="33" rx="4" fill="black" fill-opacity="0.6"/>
    <rect width="14" height="33" rx="4" fill="black" fill-opacity="0.6"/>
</svg>
