<svg width="110" height="104" viewBox="0 0 110 104" fill="none" xmlns="http://www.w3.org/2000/svg">
    <path d="M60.3415 83.0405C62.9983 81.3016 66.5247 83.2028 66.5321 86.378L66.5407 90.0977C66.544 91.5142 65.798 92.8267 64.5793 93.5486L52.6586 100.61C52.2235 100.868 51.7434 101.041 51.2439 101.119L33.671 103.894C33.2269 103.964 32.774 103.959 32.3316 103.878L17.0843 101.106C16.6969 101.036 16.322 100.909 15.9718 100.729L2.19753 93.6515C0.866943 92.9679 0.0290287 91.5989 0.0255458 90.1029L0.0160765 86.0357C0.00893206 82.9671 3.31722 81.0336 5.98735 82.5459L16.0179 88.2269C16.3378 88.4081 16.6811 88.5443 17.0382 88.6317L32.1118 92.3211C32.6964 92.4642 33.3057 92.4735 33.8944 92.3484L51.2676 88.6557C51.7517 88.5528 52.2124 88.361 52.6265 88.09L60.3415 83.0405Z" fill="black" fill-opacity="0.6"/>
    <rect x="53" y="31" width="14" height="33" rx="4" fill="black" fill-opacity="0.6"/>
    <rect y="31" width="14" height="33" rx="4" fill="black" fill-opacity="0.6"/>
    <g opacity="0.6">
        <path d="M83.75 32.7827L78.935 27.3143C78.6155 26.9514 78.3591 26.5013 78.1834 25.9948C78.0076 25.4883 77.9166 24.9374 77.9166 24.38V16.5625C77.9166 15.5375 78.2239 14.5545 78.7709 13.8298C79.3179 13.105 80.0597 12.6979 80.8333 12.6979H99.1666C99.9402 12.6979 100.682 13.105 101.229 13.8298C101.776 14.5545 102.083 15.5375 102.083 16.5625V24.38C102.083 24.9374 101.992 25.4883 101.817 25.9948C101.641 26.5013 101.384 26.9514 101.065 27.3143L96.25 32.7827V46.375C96.25 47.3999 95.9427 48.3829 95.3957 49.1076C94.8487 49.8324 94.1068 50.2395 93.3333 50.2395H86.6666C85.8931 50.2395 85.1512 49.8324 84.6042 49.1076C84.0572 48.3829 83.75 47.3999 83.75 46.375V32.7827ZM80.8333 16.0104C80.7228 16.0104 80.6168 16.0685 80.5387 16.1721C80.4605 16.2756 80.4166 16.416 80.4166 16.5625V24.38C80.4166 24.4597 80.4297 24.5385 80.4548 24.6109C80.48 24.6834 80.5167 24.7477 80.5625 24.7995L85.5225 30.433C85.7506 30.6921 85.9338 31.0136 86.0593 31.3753C86.1849 31.7371 86.2499 32.1305 86.25 32.5287V46.375C86.25 46.5214 86.2939 46.6618 86.372 46.7653C86.4501 46.8689 86.5561 46.927 86.6666 46.927H93.3333C93.4438 46.927 93.5498 46.8689 93.6279 46.7653C93.7061 46.6618 93.75 46.5214 93.75 46.375V32.5287C93.75 32.1305 93.815 31.7371 93.9406 31.3753C94.0662 31.0136 94.2493 30.6921 94.4775 30.433L99.4379 24.7995C99.4835 24.7477 99.5202 24.6833 99.5453 24.6109C99.5704 24.5384 99.5833 24.4597 99.5833 24.38V16.5625C99.5833 16.416 99.5394 16.2756 99.4613 16.1721C99.3831 16.0685 99.2771 16.0104 99.1666 16.0104H80.8333ZM88.75 32.5729C88.75 32.1336 88.8817 31.7123 89.1161 31.4017C89.3505 31.0911 89.6684 30.9166 90 30.9166C90.3315 30.9166 90.6494 31.0911 90.8838 31.4017C91.1183 31.7123 91.25 32.1336 91.25 32.5729V36.9895C91.25 37.4288 91.1183 37.8501 90.8838 38.1607C90.6494 38.4713 90.3315 38.6458 90 38.6458C89.6684 38.6458 89.3505 38.4713 89.1161 38.1607C88.8817 37.8501 88.75 37.4288 88.75 36.9895V32.5729ZM88.75 4.41663C88.75 3.97736 88.8817 3.55609 89.1161 3.24548C89.3505 2.93487 89.6684 2.76038 90 2.76038C90.3315 2.76038 90.6494 2.93487 90.8838 3.24548C91.1183 3.55609 91.25 3.97736 91.25 4.41663V8.83329C91.25 9.27256 91.1183 9.69383 90.8838 10.0044C90.6494 10.315 90.3315 10.4895 90 10.4895C89.6684 10.4895 89.3505 10.315 89.1161 10.0044C88.8817 9.69383 88.75 9.27256 88.75 8.83329V4.41663ZM98.9175 4.98858C98.9989 4.7987 99.108 4.63205 99.2382 4.49822C99.3685 4.3644 99.5175 4.26604 99.6766 4.20881C99.8357 4.15158 100.002 4.13661 100.165 4.16476C100.329 4.19291 100.486 4.26364 100.629 4.37285C100.772 4.48207 100.897 4.62762 100.997 4.80113C101.097 4.97464 101.17 5.17268 101.213 5.38385C101.255 5.59503 101.265 5.81515 101.243 6.03157C101.22 6.24798 101.166 6.4564 101.082 6.64483L99.4158 10.4697C99.3343 10.6595 99.2253 10.8262 99.095 10.96C98.9647 11.0939 98.8158 11.1922 98.6567 11.2494C98.4976 11.3067 98.3315 11.3216 98.168 11.2935C98.0046 11.2653 97.8469 11.1946 97.7041 11.0854C97.5614 10.9762 97.4363 10.8306 97.3362 10.6571C97.236 10.4836 97.1628 10.2856 97.1207 10.0744C97.0785 9.86323 97.0683 9.6431 97.0907 9.42669C97.113 9.21027 97.1674 9.00185 97.2508 8.81342L98.9175 4.98858ZM81.0825 4.98858L82.7491 8.81342C82.8325 9.00185 82.8869 9.21027 82.9092 9.42669C82.9316 9.6431 82.9214 9.86323 82.8792 10.0744C82.8371 10.2856 82.7639 10.4836 82.6637 10.6571C82.5636 10.8306 82.4385 10.9762 82.2958 11.0854C82.153 11.1946 81.9954 11.2653 81.8319 11.2935C81.6684 11.3216 81.5024 11.3067 81.3433 11.2494C81.1842 11.1922 81.0352 11.0939 80.9049 10.96C80.7746 10.8262 80.6656 10.6595 80.5841 10.4697L78.9175 6.64483C78.7543 6.26463 78.7113 5.81435 78.7978 5.39227C78.8843 4.97019 79.0932 4.61057 79.3791 4.39188C79.665 4.17319 80.0045 4.1132 80.3236 4.22499C80.6427 4.33678 80.9155 4.61128 81.0825 4.98858Z" fill="black"/>
    </g>
</svg>
