<svg width="112" height="107" viewBox="0 0 112 107" fill="none" xmlns="http://www.w3.org/2000/svg">
    <rect x="54" y="41" width="14" height="33" rx="4" fill="black" fill-opacity="0.6"/>
    <rect y="41" width="14" height="33" rx="4" fill="black" fill-opacity="0.6"/>
    <g opacity="0.6">
        <path d="M88.0731 28.6412H81.5325C80.6785 28.6412 80.0895 27.5454 80.3933 26.523L86.8925 4.65212C86.9805 4.35623 87.1364 4.10156 87.3398 3.92187C87.5431 3.74217 87.7843 3.64592 88.0313 3.64587H98.9984C99.8637 3.64587 100.454 4.76983 100.127 5.79744L96.3427 17.7058H103.467C104.514 17.7058 105.073 19.2891 104.382 20.2985L86.9161 45.8141C86.067 47.0547 84.4928 45.9797 84.8223 44.3844L88.0731 28.6412Z" fill="black"/>
    </g>
    <ellipse cx="34" cy="94.5" rx="20" ry="12.5" fill="black" fill-opacity="0.6"/>
</svg>
