<svg width="122" height="111" viewBox="0 0 122 111" fill="none" xmlns="http://www.w3.org/2000/svg">
    <path d="M60.3415 90.0405C62.9983 88.3016 66.5247 90.2028 66.5321 93.378L66.5407 97.0977C66.544 98.5142 65.798 99.8267 64.5793 100.549L52.6586 107.61C52.2235 107.868 51.7434 108.041 51.2439 108.119L33.671 110.894C33.2269 110.964 32.774 110.959 32.3316 110.878L17.0843 108.106C16.6969 108.036 16.322 107.909 15.9718 107.729L2.19753 100.651C0.866943 99.9679 0.0290287 98.5989 0.0255458 97.1029L0.0160765 93.0357C0.00893206 89.9671 3.31722 88.0336 5.98735 89.5459L16.0179 95.2269C16.3378 95.4081 16.6811 95.5443 17.0382 95.6317L32.1118 99.3211C32.6964 99.4642 33.3057 99.4735 33.8944 99.3484L51.2676 95.6557C51.7517 95.5528 52.2124 95.361 52.6265 95.09L60.3415 90.0405Z" fill="black" fill-opacity="0.6"/>
    <rect x="53" y="38" width="14" height="33" rx="4" fill="black" fill-opacity="0.6"/>
    <rect y="38" width="14" height="33" rx="4" fill="black" fill-opacity="0.6"/>
    <g opacity="0.6">
        <path d="M117.239 28.985C117.154 17.2164 107.952 7.53858 96.24 6.43308V4.95C96.24 4.36652 96.004 3.80695 95.5839 3.39437C95.1638 2.98179 94.5941 2.75 94 2.75C93.4059 2.75 92.8362 2.98179 92.4161 3.39437C91.996 3.80695 91.76 4.36652 91.76 4.95V6.43308C79.9927 7.5438 70.76 17.3066 70.76 29.15C70.76 29.7335 70.996 30.2931 71.4161 30.7056C71.8362 31.1182 72.4059 31.35 73 31.35H91.76V42.9C91.76 42.9258 91.7631 42.9509 91.7639 42.9762C91.7631 43.0018 91.76 43.0268 91.76 43.0526C91.76 45.6979 89.6247 47.85 87 47.85C84.3753 47.85 82.24 45.6979 82.24 43.0526C82.24 42.4692 82.004 41.9096 81.5839 41.497C81.1638 41.0844 80.5941 40.8526 80 40.8526C79.4059 40.8526 78.8362 41.0844 78.4161 41.497C77.996 41.9096 77.76 42.4692 77.76 43.0526C77.76 48.1239 81.9051 52.25 87 52.25C92.0949 52.25 96.24 48.1239 96.24 43.0526C96.24 43.0268 96.2369 43.0018 96.2361 42.9765C96.2369 42.9509 96.24 42.9258 96.24 42.9003V31.3503H115.006C115.314 31.3503 115.619 31.2878 115.902 31.1667C116.184 31.0456 116.438 30.8684 116.648 30.6464C116.858 30.4244 117.019 30.1622 117.12 29.8763C117.222 29.5904 117.263 29.287 117.239 28.985Z" fill="black"/>
    </g>
</svg>
