<svg width="146" height="120" viewBox="0 0 146 120" fill="none" xmlns="http://www.w3.org/2000/svg">
    <path d="M91.3418 104.268C93.9876 102.392 97.6476 104.278 97.6545 107.521L97.6565 108.432C97.6594 109.797 96.9654 111.07 95.8158 111.808L87.4906 117.15C87.0388 117.44 86.5333 117.636 86.0042 117.727L73.3522 119.891C72.8726 119.973 72.3822 119.967 71.9049 119.873L60.9333 117.712C60.5226 117.631 60.1271 117.486 59.7614 117.282L50.0719 111.889C48.8068 111.185 48.0213 109.852 48.0182 108.404L48.0154 107.097C48.0087 103.966 51.4397 102.04 54.1081 103.677L59.8138 107.178C60.1451 107.381 60.5043 107.535 60.88 107.634L71.6695 110.495C72.2982 110.662 72.9582 110.673 73.5921 110.527L86.0349 107.662C86.544 107.545 87.0252 107.329 87.4515 107.027L91.3418 104.268Z" fill="black" fill-opacity="0.6"/>
    <rect x="88" y="61" width="10" height="27" rx="4" fill="black" fill-opacity="0.6"/>
    <rect x="48" y="61" width="10" height="27" rx="4" fill="black" fill-opacity="0.6"/>
    <path d="M73.6328 14.3837C42.3081 14.3837 16.9953 34.3219 16.9953 58.9954V96.3795C16.9953 99.121 19.843 101.364 23.3235 101.364H36.6128C40.0933 101.364 42.941 99.121 42.941 96.3795V71.706C42.941 68.9645 40.0933 66.7214 36.6128 66.7214H23.3235V58.9954C23.3235 37.0634 45.7887 19.3682 73.6328 19.3682C101.477 19.3682 123.942 37.0634 123.942 58.9954V66.7214H115.715C113.817 66.7214 112.551 67.7183 112.551 69.2137C112.551 70.7091 113.817 71.706 115.715 71.706L123.942 71.4568V96.3795L110.336 96.6287V74.4475C110.336 72.9521 109.071 71.9552 107.172 71.9552C105.274 71.9552 104.008 72.9521 104.008 74.4475V96.6287C104.008 99.3702 106.856 101.364 110.02 101.364H123.626C127.106 101.364 129.637 99.121 129.637 96.6287V58.7462C130.27 34.3219 104.641 14.3837 73.6328 14.3837ZM23.3235 71.706H36.6128V96.3795H23.3235V71.706Z" fill="black" fill-opacity="0.6"/>
</svg>
