<svg width="117" height="119" viewBox="0 0 117 119" fill="none" xmlns="http://www.w3.org/2000/svg">
    <path d="M103.227 55.0023C103.682 53.2351 105.275 52 107.1 52H112.763C115.4 52 117.316 54.5079 116.622 57.0525L109.804 82.0525C109.329 83.7927 107.749 85 105.945 85H100.5C97.9674 85 96.1155 82.6106 96.7472 80.158L103.227 55.0023Z" fill="black" fill-opacity="0.6"/>
    <path d="M46.7267 55.0023C47.1819 53.2351 48.7754 52 50.6003 52H56.263C58.9005 52 60.816 54.5079 60.1221 57.0525L53.3039 82.0525C52.8293 83.7927 51.2486 85 49.4448 85H44C41.4674 85 39.6155 82.6106 40.2472 80.158L46.7267 55.0023Z" fill="black" fill-opacity="0.6"/>
    <path d="M102.5 102.5C102.5 108.851 95 116 60.5 119C47.2452 119 42 116.351 42 110C42 103.649 63.5 98.5 76.5 97C91 95 102.5 96.1487 102.5 102.5Z" fill="black" fill-opacity="0.6"/>
    <g clip-path="url(#clip0_0_1)">
        <path d="M49.3282 42.2072L24.9993 28.6633C24.3737 28.315 24.0347 27.7308 24.242 27.3583C24.4494 26.9859 25.1246 26.9662 25.7501 27.3145L50.079 40.8584C56.3707 44.361 63.186 44.1629 65.2714 40.4168C67.3569 36.6708 63.9349 30.7735 57.6432 27.271C57.0177 26.9227 56.6786 26.3385 56.886 25.966C57.0933 25.5936 57.7685 25.5739 58.3941 25.9222C65.9348 30.1201 70.0362 37.1881 67.5368 41.6779C65.0373 46.1677 56.869 46.4051 49.3282 42.2072Z" fill="black" fill-opacity="0.6"/>
        <path d="M33.1689 50.7673C32.5433 50.419 32.2043 49.8348 32.4116 49.4623C32.619 49.0899 33.2941 49.0702 33.9197 49.4185C37.7215 51.535 41.8398 51.4152 43.1 49.1516C44.3601 46.888 42.2923 43.3245 38.4905 41.208L12.672 26.8348C12.0464 26.4866 11.7074 25.9023 11.9147 25.5299C12.1221 25.1574 12.7973 25.1378 13.4228 25.486L39.2414 39.8592C44.2923 42.6711 47.0395 47.4054 45.3653 50.4127C43.6911 53.4201 38.2198 53.5791 33.1689 50.7673Z" fill="black" fill-opacity="0.6"/>
        <path d="M46.4051 34.8562L17.1825 18.5879C16.557 18.2397 16.2169 17.6572 16.4243 17.2848C16.6316 16.9123 17.3058 16.8945 17.9314 17.2427L47.154 33.511C47.7795 33.8592 48.1195 34.4417 47.9122 34.8141C47.7049 35.1866 47.0306 35.2044 46.4051 34.8562Z" fill="black" fill-opacity="0.6"/>
    </g>
    <defs>
        <clipPath id="clip0_0_1">
            <rect width="66.3475" height="39.5037" fill="white" transform="translate(19.2256 0.856567) rotate(29.1047)"/>
        </clipPath>
    </defs>
</svg>
